<svg width="33" height="32" viewBox="0 0 33 32" fill="none" xmlns="http://www.w3.org/2000/svg">
<path d="M22.5 11.5067C21.9533 11.5067 21.5 11.0534 21.5 10.5067V8.66674C21.5 7.26674 20.9 5.90674 19.86 4.96007C18.8067 4.00007 17.4467 3.56007 16.0067 3.69341C13.6067 3.92007 11.5 6.37341 11.5 8.93341V10.2267C11.5 10.7734 11.0467 11.2267 10.5 11.2267C9.95333 11.2267 9.5 10.7734 9.5 10.2267V8.92007C9.5 5.33341 12.3933 2.02674 15.82 1.69341C17.82 1.50674 19.74 2.13341 21.2067 3.48007C22.66 4.80007 23.5 6.69341 23.5 8.66674V10.5067C23.5 11.0534 23.0467 11.5067 22.5 11.5067Z" fill="#292D32"/>
<path d="M20.5 30.3332H12.5C6.34 30.3332 5.19334 27.4665 4.9 24.6798L3.9 16.6932C3.75334 15.2532 3.7 13.1865 5.1 11.6398C6.3 10.3065 8.28667 9.6665 11.1667 9.6665H21.8333C24.7267 9.6665 26.7133 10.3198 27.9 11.6398C29.2867 13.1865 29.2467 15.2532 29.1 16.6665L28.1 24.6798C27.8067 27.4665 26.66 30.3332 20.5 30.3332ZM11.1667 11.6665C8.91334 11.6665 7.36667 12.1065 6.58 12.9865C5.92667 13.7065 5.71334 14.8132 5.88667 16.4665L6.88667 24.4532C7.11334 26.5865 7.7 28.3465 12.5 28.3465H20.5C25.3 28.3465 25.8867 26.5998 26.1133 24.4798L27.1133 16.4665C27.2867 14.8398 27.0733 13.7332 26.42 12.9998C25.6333 12.1065 24.0867 11.6665 21.8333 11.6665H11.1667Z" fill="#292D32"/>
<path d="M21.06 17.5334C20.3134 17.5334 19.7134 16.9334 19.7134 16.2C19.7134 15.4667 20.3134 14.8667 21.0467 14.8667C21.78 14.8667 22.38 15.4667 22.38 16.2C22.38 16.9334 21.7934 17.5334 21.06 17.5334Z" fill="#292D32"/>
<path d="M11.7267 17.5334C10.98 17.5334 10.38 16.9334 10.38 16.2C10.38 15.4667 10.98 14.8667 11.7133 14.8667C12.4467 14.8667 13.0467 15.4667 13.0467 16.2C13.0467 16.9334 12.46 17.5334 11.7267 17.5334Z" fill="#292D32"/>
</svg>
