<svg width="33" height="32" viewBox="0 0 33 32" fill="none" xmlns="http://www.w3.org/2000/svg">
<path d="M27.1134 11.9467C26.2201 10.96 24.8734 10.3867 23.0067 10.1867V9.17336C23.0067 7.3467 22.2334 5.5867 20.8734 4.36003C19.5001 3.1067 17.7134 2.52003 15.8601 2.69336C12.6734 3.00003 9.9934 6.08003 9.9934 9.41336V10.1867C8.12673 10.3867 6.78007 10.96 5.88673 11.9467C4.5934 13.3867 4.6334 15.3067 4.78007 16.64L5.7134 24.0667C5.9934 26.6667 7.04673 29.3334 12.7801 29.3334H20.2201C25.9534 29.3334 27.0067 26.6667 27.2867 24.08L28.2201 16.6267C28.3667 15.3067 28.3934 13.3867 27.1134 11.9467ZM16.0467 4.5467C17.3801 4.4267 18.6467 4.84003 19.6334 5.73336C20.6067 6.61336 21.1534 7.8667 21.1534 9.17336V10.1067H11.8467V9.41336C11.8467 7.04003 13.8067 4.76003 16.0467 4.5467ZM11.7267 17.5334H11.7134C10.9801 17.5334 10.3801 16.9334 10.3801 16.2C10.3801 15.4667 10.9801 14.8667 11.7134 14.8667C12.4601 14.8667 13.0601 15.4667 13.0601 16.2C13.0601 16.9334 12.4601 17.5334 11.7267 17.5334ZM21.0601 17.5334H21.0467C20.3134 17.5334 19.7134 16.9334 19.7134 16.2C19.7134 15.4667 20.3134 14.8667 21.0467 14.8667C21.7934 14.8667 22.3934 15.4667 22.3934 16.2C22.3934 16.9334 21.7934 17.5334 21.0601 17.5334Z" fill="#292D32"/>
</svg>
