<svg width="20" height="20" viewBox="0 0 20 20" fill="none" xmlns="http://www.w3.org/2000/svg">
<path d="M12.5 2.49998C13.58 2.49998 14.58 2.84165 15.3975 3.42498L7.78583 11.0358C7.70624 11.1127 7.64276 11.2046 7.59908 11.3063C7.55541 11.408 7.53242 11.5173 7.53146 11.628C7.5305 11.7386 7.55158 11.8484 7.59348 11.9508C7.63538 12.0532 7.69726 12.1462 7.7755 12.2245C7.85375 12.3027 7.94679 12.3646 8.04921 12.4065C8.15162 12.4484 8.26135 12.4695 8.372 12.4685C8.48265 12.4676 8.592 12.4446 8.69367 12.4009C8.79534 12.3572 8.88729 12.2937 8.96417 12.2142L16.5758 4.60248C17.1773 5.44893 17.5003 6.46162 17.5 7.49998V15.8333C17.5 16.2753 17.3244 16.6993 17.0118 17.0118C16.6993 17.3244 16.2754 17.5 15.8333 17.5H4.16667C3.72464 17.5 3.30072 17.3244 2.98816 17.0118C2.67559 16.6993 2.5 16.2753 2.5 15.8333V4.16665C2.5 3.72462 2.67559 3.3007 2.98816 2.98814C3.30072 2.67558 3.72464 2.49998 4.16667 2.49998H12.5ZM18.0475 1.95248C18.2037 2.10876 18.2915 2.32068 18.2915 2.54165C18.2915 2.76262 18.2037 2.97455 18.0475 3.13082L16.575 4.60248C16.2509 4.14656 15.8526 3.74825 15.3967 3.42415L16.8683 1.95248C17.0246 1.79626 17.2365 1.7085 17.4575 1.7085C17.6785 1.7085 17.8912 1.79626 18.0475 1.95248Z" fill="#5E5E5E"/>
</svg>
