<svg width="33" height="32" viewBox="0 0 33 32" fill="none" xmlns="http://www.w3.org/2000/svg">
<path d="M27.22 9.09358L19.54 3.72024C17.4467 2.25358 14.2333 2.33358 12.22 3.89358L5.53999 9.10691C4.20665 10.1469 3.15332 12.2802 3.15332 13.9602V23.1602C3.15332 26.5602 5.91332 29.3336 9.31332 29.3336H23.6867C27.0867 29.3336 29.8467 26.5736 29.8467 23.1736V14.1336C29.8467 12.3336 28.6867 10.1202 27.22 9.09358ZM17.5 24.0002C17.5 24.5469 17.0467 25.0002 16.5 25.0002C15.9533 25.0002 15.5 24.5469 15.5 24.0002V20.0002C15.5 19.4536 15.9533 19.0002 16.5 19.0002C17.0467 19.0002 17.5 19.4536 17.5 20.0002V24.0002Z" fill="black"/>
</svg>
