<svg width="33" height="32" viewBox="0 0 33 32" fill="none" xmlns="http://www.w3.org/2000/svg">
<path d="M24.2201 30.3331H8.78008C5.12675 30.3331 2.16675 27.3598 2.16675 23.7065V13.8265C2.16675 12.0131 3.28675 9.73314 4.72675 8.61314L11.9134 3.01314C14.0734 1.33314 17.5267 1.25314 19.7667 2.82647L28.0067 8.5998C29.5934 9.70647 30.8334 12.0798 30.8334 14.0131V23.7198C30.8334 27.3598 27.8734 30.3331 24.2201 30.3331ZM13.1401 4.58647L5.95341 10.1865C5.00675 10.9331 4.16675 12.6265 4.16675 13.8265V23.7065C4.16675 26.2531 6.23342 28.3331 8.78008 28.3331H24.2201C26.7668 28.3331 28.8334 26.2665 28.8334 23.7198V14.0131C28.8334 12.7331 27.9134 10.9598 26.8601 10.2398L18.6201 4.46647C17.1001 3.3998 14.5934 3.45314 13.1401 4.58647Z" fill="black"/>
<path d="M16.5 25C15.9533 25 15.5 24.5467 15.5 24V20C15.5 19.4533 15.9533 19 16.5 19C17.0467 19 17.5 19.4533 17.5 20V24C17.5 24.5467 17.0467 25 16.5 25Z" fill="black"/>
</svg>
