<svg width="30" height="29" viewBox="0 0 30 29" fill="none" xmlns="http://www.w3.org/2000/svg">
<path d="M5.44378 28.3443V26.4569C5.44378 25.733 5.08335 25.2614 4.49174 25.2614C4.18103 25.2614 3.84856 25.3874 3.61677 25.793C3.43656 25.4467 3.18177 25.2614 2.79338 25.2614C2.64897 25.2537 2.50527 25.29 2.37513 25.3669C2.245 25.4437 2.13248 25.5588 2.04766 25.7019V25.3221H1.55859V28.342H2.04766V26.6141C2.04766 26.0824 2.30493 25.828 2.66536 25.828C3.02579 25.828 3.23148 26.1113 3.23148 26.6141V28.3443H3.72055V26.6141C3.72055 26.0824 3.97782 25.828 4.33825 25.828C4.69868 25.828 4.90437 26.1113 4.90437 26.6141V28.3443H5.44378ZM13.4739 25.3555H12.5728V24.4441H12.085V25.3555H11.5705V25.8872H12.085V27.306C12.085 27.9979 12.2907 28.4073 12.9084 28.4073C13.1424 28.4014 13.3717 28.3258 13.5764 28.1871L13.4217 27.6554C13.2829 27.7615 13.1218 27.8161 12.9581 27.8126C12.7008 27.8126 12.5722 27.6235 12.5722 27.3091V25.8629H13.4733V25.3593L13.4739 25.3555ZM18.0551 25.2614C17.9219 25.2577 17.7902 25.2964 17.6729 25.3736C17.5555 25.4509 17.4566 25.564 17.3858 25.7019V25.3221H16.8967V28.342H17.3858V26.646C17.3858 26.1424 17.5915 25.828 17.9264 25.828C18.0395 25.8336 18.1516 25.8547 18.2608 25.891L18.4155 25.3244C18.2975 25.288 18.1767 25.2669 18.0551 25.2614ZM11.1317 25.5758C10.8745 25.3555 10.514 25.2614 10.1281 25.2614C9.51042 25.2614 9.12451 25.6077 9.12451 26.2055C9.12451 26.709 9.40788 26.9916 9.9479 27.0865L10.2052 27.1177C10.4885 27.1807 10.6688 27.3068 10.6688 27.464C10.6688 27.6843 10.4631 27.8438 10.0765 27.8438C9.7814 27.8512 9.49232 27.7408 9.25314 27.5293L8.99587 28.001C9.3563 28.3154 9.79379 28.3808 10.0523 28.3808C10.7732 28.3808 11.1591 27.9721 11.1591 27.4055C11.1591 26.8738 10.8484 26.6194 10.3096 26.5245L10.0523 26.4933C9.82051 26.4622 9.6173 26.3672 9.6173 26.1789C9.6173 25.9586 9.82299 25.7991 10.1064 25.7991C10.4171 25.7991 10.7241 25.9563 10.8788 26.0505L11.1317 25.5758ZM18.5957 26.8344C18.5957 27.7458 19.0848 28.4073 19.8827 28.4073C20.2431 28.4073 20.5004 28.3132 20.7577 28.061L20.5004 27.5893C20.3183 27.7696 20.0916 27.8695 19.8572 27.8726C19.4222 27.8726 19.0848 27.464 19.0848 26.8662C19.0848 26.2685 19.4179 25.8629 19.8572 25.8629C20.0916 25.8661 20.3183 25.9659 20.5004 26.1462L20.7577 25.6745C20.5004 25.4231 20.2431 25.3282 19.8827 25.3282C19.1103 25.2652 18.5957 25.926 18.5957 26.8381V26.8344ZM15.1468 25.2614C14.4259 25.2614 13.9369 25.8903 13.9369 26.8344C13.9369 27.7784 14.4514 28.4073 15.1977 28.4073C15.5608 28.4167 15.9154 28.2723 16.2014 27.9987L15.9441 27.5582C15.7373 27.754 15.4848 27.8642 15.2232 27.8726C14.8889 27.8726 14.5285 27.6212 14.4775 27.0865H16.3051V26.8351C16.3051 25.891 15.8415 25.2621 15.1468 25.2621V25.2614ZM15.1213 25.828C15.4817 25.828 15.739 26.1113 15.7645 26.5829H14.4265C14.5036 26.1424 14.7373 25.828 15.1213 25.828ZM8.45523 26.8344V25.3244H7.96616V25.7042C7.78595 25.4209 7.53116 25.2636 7.16824 25.2636C6.47349 25.2636 5.95832 25.9244 5.95832 26.8366C5.95832 27.7488 6.47286 28.4096 7.16824 28.4096C7.52867 28.4096 7.78595 28.2524 7.96616 27.9691V28.3489H8.45523V26.8344ZM6.47348 26.8344C6.47348 26.2677 6.75686 25.828 7.24592 25.828C7.70951 25.828 7.99164 26.2685 7.99164 26.8344C7.99164 27.4321 7.68092 27.8407 7.24592 27.8407C6.75686 27.8719 6.47348 27.4002 6.47348 26.8344ZM25.4942 25.2614C25.361 25.2577 25.2293 25.2964 25.112 25.3736C24.9947 25.4509 24.8958 25.564 24.8249 25.7019V25.3221H24.3359V28.342H24.8243V26.646C24.8243 26.1424 25.03 25.828 25.365 25.828C25.478 25.8336 25.5901 25.8547 25.6993 25.891L25.854 25.3244C25.736 25.288 25.6152 25.2669 25.4936 25.2614H25.4942ZM23.5895 26.8344V25.3244H23.1005V25.7042C22.9203 25.4209 22.6655 25.2636 22.3026 25.2636C21.6078 25.2636 21.0926 25.9244 21.0926 26.8366C21.0926 27.7488 21.6072 28.4096 22.3026 28.4096C22.663 28.4096 22.9203 28.2524 23.1005 27.9691V28.3489H23.5895V26.8344ZM21.6078 26.8344C21.6078 26.2677 21.8912 25.828 22.3802 25.828C22.8438 25.828 23.1259 26.2685 23.1259 26.8344C23.1259 27.4321 22.8152 27.8407 22.3802 27.8407C21.8912 27.8719 21.6078 27.4002 21.6078 26.8344ZM28.5573 26.8344V24.1289H28.0682V25.7019C27.888 25.4186 27.6332 25.2614 27.2703 25.2614C26.5755 25.2614 26.0603 25.9222 26.0603 26.8344C26.0603 27.7465 26.5749 28.4073 27.2703 28.4073C27.6307 28.4073 27.888 28.2501 28.0682 27.9668V28.3466H28.5573V26.8344ZM26.5755 26.8344C26.5755 26.2677 26.8589 25.828 27.3479 25.828C27.8115 25.828 28.0937 26.2685 28.0937 26.8344C28.0937 27.4321 27.7829 27.8407 27.3479 27.8407C26.8583 27.8726 26.5749 27.401 26.5749 26.8344H26.5755Z" fill="black"/>
<path d="M19.5015 2.42236H10.5703V20.2272H19.5015V2.42236Z" fill="#FF5F00"/>
<path d="M11.4663 11.3245C11.4667 9.61171 11.784 7.92115 12.3946 6.37946C13.0052 4.83777 13.8933 3.48489 14.9923 2.42213C13.6256 1.1087 11.984 0.291792 10.2553 0.0647989C8.52654 -0.162194 6.78045 0.209887 5.21658 1.13851C3.65271 2.06713 2.33417 3.51482 1.41168 5.31608C0.489202 7.11735 0 9.19951 0 11.3245C0 13.4496 0.489202 15.5317 1.41168 17.333C2.33417 19.1343 3.65271 20.582 5.21658 21.5106C6.78045 22.4392 8.52654 22.8113 10.2553 22.5843C11.984 22.3573 13.6256 21.5404 14.9923 20.2269C13.8933 19.1642 13.0052 17.8113 12.3946 16.2696C11.784 14.7279 11.4667 13.0374 11.4663 11.3245Z" fill="#EB001B"/>
<path d="M29.9979 11.3248C29.9992 13.4482 29.5114 15.5293 28.5905 17.3299C27.6695 19.1305 26.3525 20.5779 24.7901 21.5067C23.2277 22.4354 21.4829 22.8079 19.7554 22.5817C18.0279 22.3554 16.3874 21.5394 15.0215 20.2271C16.1208 19.1647 17.009 17.8119 17.6197 16.2701C18.2304 14.7284 18.5476 13.0377 18.5476 11.3248C18.5476 9.61185 18.2304 7.92115 17.6197 6.3794C17.009 4.83765 16.1208 3.48484 15.0215 2.42236C16.3874 1.11006 18.0279 0.294108 19.7554 0.0678349C21.4829 -0.158438 23.2277 0.214099 24.7901 1.14284C26.3525 2.07158 27.6695 3.51902 28.5905 5.31962C29.5114 7.12022 29.9992 9.20127 29.9979 11.3248Z" fill="#F79E1B"/>
</svg>
