<svg width="30" height="28" viewBox="0 0 30 28" fill="none" xmlns="http://www.w3.org/2000/svg">
<path fill-rule="evenodd" clip-rule="evenodd" d="M4.02855 18.0923H4.19558L4.03917 19.0893C4.01532 19.2359 4.02063 19.3498 4.0524 19.423C4.08425 19.4963 4.14248 19.5329 4.22996 19.5329C4.31473 19.5329 4.38628 19.4963 4.44198 19.423C4.4976 19.3496 4.53477 19.2358 4.55862 19.0893L4.71494 18.0923H4.88458L4.72556 19.1138C4.69109 19.3335 4.63016 19.5004 4.54008 19.6103C4.4526 19.7201 4.33597 19.7772 4.19288 19.7772C4.04979 19.7772 3.95169 19.7243 3.89868 19.6143C3.84568 19.5044 3.83506 19.3376 3.86953 19.1179L4.02855 18.0924V18.0923ZM24.1431 19.7323L24.3974 18.0923H24.9778L24.9433 18.3202H24.5326L24.469 18.7311H24.8798L24.8426 18.9631H24.4319L24.3497 19.492H24.7605L24.7235 19.7321H24.1431V19.7323ZM24.1272 18.4911C24.09 18.4261 24.045 18.3772 23.9973 18.3486C23.9495 18.3162 23.8966 18.2998 23.8356 18.2998C23.7216 18.2998 23.6209 18.3568 23.5308 18.4708C23.4408 18.5848 23.3824 18.7354 23.3533 18.9184C23.3267 19.0935 23.3374 19.2399 23.3905 19.3579C23.4408 19.4718 23.5202 19.5289 23.6262 19.5289C23.6872 19.5289 23.7482 19.5126 23.809 19.476C23.87 19.4435 23.9311 19.3904 23.9946 19.3213L23.9469 19.6224C23.8939 19.6752 23.8383 19.712 23.7799 19.7364C23.7215 19.7608 23.6632 19.7731 23.5997 19.7731C23.5202 19.7731 23.4486 19.7526 23.3877 19.7118C23.3266 19.6712 23.2764 19.6101 23.2366 19.5289C23.1969 19.4515 23.173 19.3579 23.1624 19.2522C23.1519 19.1464 23.1545 19.0325 23.1757 18.9104C23.1943 18.7883 23.226 18.6782 23.2685 18.5725C23.3109 18.4666 23.3665 18.3731 23.4301 18.2958C23.4937 18.2144 23.5626 18.1535 23.6369 18.1127C23.711 18.0721 23.7852 18.0518 23.8621 18.0518C23.923 18.0518 23.9787 18.064 24.0318 18.0924C24.0821 18.121 24.1298 18.1615 24.1722 18.2186L24.1272 18.4911ZM22.4787 19.0853H22.7675L22.7198 18.7108C22.7172 18.6865 22.7145 18.6579 22.7145 18.6294C22.7118 18.5969 22.7118 18.5643 22.7118 18.5277C22.7012 18.5643 22.6907 18.5968 22.6773 18.6294C22.6667 18.6619 22.6562 18.6905 22.6456 18.715L22.4786 19.0853H22.4787ZM22.8471 19.7323L22.7941 19.3092H22.3806L22.195 19.7323H22.0176L22.786 18.0273L23.0245 19.7323H22.8471ZM21.4478 19.7323L21.7022 18.0923H22.2826L22.2481 18.3202H21.8373L21.7738 18.7271H22.1844L22.1474 18.9591H21.7366L21.6174 19.7281H21.4477V19.7323H21.4478ZM20.9469 18.7882H20.9787C21.0688 18.7882 21.1298 18.7719 21.1642 18.7393C21.1986 18.7067 21.2226 18.6497 21.2358 18.5642C21.2489 18.4747 21.2437 18.4096 21.2172 18.3729C21.1908 18.3363 21.135 18.3159 21.0502 18.3159H21.0184L20.9468 18.7881L20.9469 18.7882ZM20.9045 18.9958L20.7905 19.7281H20.6315L20.886 18.0883H21.1219C21.1908 18.0883 21.2437 18.0964 21.2782 18.1087C21.3152 18.121 21.3444 18.1454 21.3656 18.1778C21.3921 18.2186 21.408 18.2674 21.4159 18.3325C21.4239 18.3937 21.4212 18.4628 21.4106 18.54C21.3894 18.6703 21.3549 18.7762 21.3019 18.8493C21.2489 18.9225 21.1826 18.9673 21.1031 18.9836L21.3443 19.728H21.1534L20.9229 18.9956H20.9043L20.9045 18.9958ZM19.8577 19.7323L20.1122 18.0923H20.6952L20.6608 18.3202H20.25L20.1864 18.7311H20.5972L20.5602 18.9631H20.1494L20.0673 19.492H20.478L20.4409 19.7321H19.8578L19.8577 19.7323ZM19.6749 18.3162L19.455 19.7281H19.2854L19.5054 18.3162H19.2297L19.2642 18.0883H19.985L19.9507 18.3162H19.675H19.6749ZM17.9497 19.7323L18.2147 18.0273L18.7183 19.0284C18.7316 19.0568 18.7447 19.0854 18.758 19.1179C18.7712 19.1504 18.7845 19.1871 18.8003 19.2276L18.978 18.0923H19.1343L18.8693 19.7934L18.3551 18.7719C18.3419 18.7434 18.3286 18.715 18.3155 18.6864C18.3022 18.6539 18.2916 18.6253 18.2836 18.5887L18.1061 19.728H17.9498V19.7321L17.9497 19.7323ZM17.5363 19.7323L17.7907 18.0923H17.9602L17.7058 19.7323H17.5363ZM16.288 19.4027L16.4391 19.305C16.4417 19.3783 16.4549 19.4352 16.4841 19.4718C16.5133 19.5084 16.553 19.5289 16.606 19.5289C16.6563 19.5289 16.6988 19.5084 16.7359 19.4638C16.7729 19.419 16.7969 19.3621 16.8074 19.2888C16.8233 19.1911 16.7863 19.1056 16.6962 19.0325C16.6829 19.0202 16.675 19.0121 16.6669 19.0081C16.5662 18.9185 16.5027 18.8413 16.4761 18.768C16.4497 18.6948 16.4443 18.6092 16.4603 18.5077C16.4814 18.3734 16.5265 18.2675 16.598 18.1821C16.6696 18.1007 16.7491 18.0559 16.8446 18.0559C16.9214 18.0559 16.9823 18.0804 17.0274 18.125C17.0724 18.17 17.0963 18.239 17.1042 18.3246L16.9559 18.4304C16.9426 18.3775 16.9266 18.3409 16.9055 18.3164C16.8843 18.2921 16.8578 18.2798 16.8259 18.2798C16.7809 18.2798 16.7412 18.3001 16.7094 18.3367C16.6775 18.3734 16.6564 18.4223 16.6458 18.4874C16.6299 18.5851 16.675 18.6785 16.7782 18.764C16.7863 18.7722 16.7915 18.7763 16.7969 18.7802C16.887 18.8534 16.9479 18.9268 16.9743 19C17.0009 19.0731 17.0062 19.1587 16.9904 19.2685C16.9664 19.4232 16.9161 19.5452 16.8392 19.6389C16.7624 19.7283 16.6722 19.7773 16.5662 19.7773C16.4788 19.7773 16.4099 19.7446 16.3622 19.6795C16.3092 19.6144 16.2853 19.5207 16.288 19.4029V19.4027ZM16.1105 18.3162L15.8905 19.7281H15.721L15.9409 18.3162H15.6654L15.6997 18.0883H16.4205L16.386 18.3162H16.1105ZM14.3853 19.7323L14.6502 18.0273L15.1538 19.0284C15.1671 19.0568 15.1804 19.0854 15.1936 19.1179C15.2067 19.1504 15.2201 19.1871 15.236 19.2276L15.4136 18.0923H15.5699L15.3049 19.7934L14.7908 18.7719C14.7775 18.7434 14.7643 18.715 14.751 18.6864C14.7378 18.6539 14.7272 18.6253 14.7192 18.5887L14.5417 19.728H14.3854V19.7321L14.3853 19.7323ZM13.6114 19.7323L13.8658 18.0923H14.4462L14.4117 18.3202H14.001L13.9374 18.7311H14.3481L14.311 18.9631H13.9003L13.8181 19.492H14.229L14.1918 19.7321H13.6114V19.7323ZM13.3305 18.9225C13.3305 18.9104 13.3331 18.8736 13.3385 18.8167C13.3412 18.7679 13.3438 18.7313 13.3465 18.6987C13.3358 18.7354 13.3252 18.7719 13.312 18.8125C13.2988 18.8493 13.2828 18.8899 13.2643 18.9265L12.8562 19.8014L12.7237 18.9104C12.7184 18.8737 12.7131 18.8371 12.7104 18.8045C12.7078 18.772 12.7051 18.7354 12.7051 18.7028C12.6998 18.7354 12.6918 18.7719 12.6839 18.8125C12.6759 18.8493 12.6654 18.8899 12.6521 18.9307L12.4136 19.7364H12.2572L12.7687 18.0273L12.9145 19.0608C12.9171 19.0771 12.9198 19.1056 12.9225 19.1422C12.9251 19.179 12.9304 19.2278 12.9357 19.2847C12.9543 19.2359 12.9781 19.179 13.01 19.1056C13.0179 19.0854 13.0258 19.0731 13.0285 19.0608L13.4896 18.0273L13.4737 19.7364H13.3174L13.3307 18.9225H13.3305ZM11.7166 19.7323L11.8333 18.9836L11.6213 18.0964H11.7987L11.9312 18.654C11.9339 18.6702 11.9365 18.6865 11.9418 18.7108C11.9471 18.7354 11.9498 18.7597 11.955 18.7841C11.9657 18.7597 11.9763 18.7353 11.9869 18.7108C11.9975 18.6865 12.0081 18.666 12.0187 18.6457L12.3288 18.0964H12.4983L12.0028 18.9794L11.8862 19.728H11.7166V19.7321L11.7166 19.7323ZM10.9296 19.0853H11.2183L11.1706 18.7108C11.1679 18.6865 11.1653 18.6579 11.1653 18.6294C11.1626 18.5969 11.1626 18.5643 11.1626 18.5277C11.152 18.5643 11.1414 18.5968 11.1282 18.6294C11.1176 18.6619 11.107 18.6905 11.0963 18.715L10.9294 19.0853H10.9296ZM11.2952 19.7323L11.2422 19.3092H10.8288L10.6433 19.7323H10.4657L11.2343 18.0273L11.4728 19.7323H11.2952ZM10.2325 18.776H10.2749C10.3677 18.776 10.4339 18.7597 10.471 18.7271C10.5081 18.6946 10.532 18.6377 10.5453 18.5562C10.5584 18.4708 10.5505 18.4057 10.524 18.3732C10.4949 18.3366 10.4366 18.3203 10.3492 18.3203H10.3068L10.2325 18.7762V18.776ZM10.1875 18.9958L10.0735 19.7323H9.9145L10.1689 18.0923H10.4259C10.5028 18.0923 10.5558 18.1004 10.5903 18.1126C10.6247 18.1248 10.6513 18.1452 10.6724 18.1777C10.6989 18.2143 10.7174 18.2672 10.7254 18.3323C10.7334 18.3975 10.7308 18.4666 10.7201 18.5439C10.7069 18.6213 10.6884 18.6945 10.6592 18.7596C10.63 18.8247 10.5956 18.8776 10.5585 18.9142C10.5267 18.9427 10.4923 18.967 10.4552 18.9793C10.4181 18.9915 10.3598 18.9998 10.2855 18.9998H10.1875V18.9956L10.1875 18.9958ZM8.60534 19.4881H8.74843C8.82529 19.4881 8.88621 19.48 8.92869 19.4638C8.97108 19.4476 9.00816 19.419 9.04262 19.3824C9.09032 19.3295 9.1301 19.2644 9.16187 19.183C9.19373 19.1056 9.21758 19.0121 9.23341 18.9063C9.24925 18.8005 9.25456 18.711 9.24664 18.6338C9.23872 18.5563 9.22018 18.4872 9.18833 18.4343C9.16448 18.3937 9.13532 18.3692 9.09563 18.3529C9.05585 18.3366 8.99493 18.3286 8.90745 18.3286H8.7856L8.60534 19.4882V19.4881ZM8.39862 19.7323L8.65313 18.0923H8.88099C9.0294 18.0923 9.1328 18.1045 9.18833 18.1289C9.24403 18.1534 9.29164 18.19 9.32881 18.2469C9.37651 18.3202 9.40836 18.4139 9.42159 18.5236C9.43482 18.6376 9.42951 18.7677 9.40836 18.9102C9.38443 19.0567 9.35005 19.1827 9.30235 19.2966C9.25465 19.4106 9.19373 19.5001 9.12218 19.5734C9.06917 19.6304 9.01086 19.6671 8.94723 19.6914C8.8863 19.7158 8.79352 19.728 8.67157 19.728H8.39862V19.7321V19.7323ZM7.62214 19.7323L7.87656 18.0923H8.45694L8.42247 18.3202H8.01164L7.94801 18.7311H8.35884L8.32176 18.9631H7.91094L7.82877 19.492H8.2396L8.20252 19.7321H7.62214V19.7323ZM7.21131 19.7323L7.46573 18.0923H7.63528L7.38086 19.7323H7.21122H7.21131ZM6.44276 19.7323L6.69717 18.0923H7.27755L7.24308 18.3202H6.83234L6.76872 18.7271H7.17946L7.14238 18.9591H6.73155L6.61231 19.7281H6.44267V19.7323H6.44276ZM6.03193 19.7323L6.28634 18.0923H6.45589L6.20148 19.7323H6.03184H6.03193ZM4.86064 19.7323L5.12559 18.0273L5.62911 19.0284C5.64234 19.0568 5.65557 19.0854 5.66889 19.1179C5.68212 19.1504 5.69535 19.1871 5.71128 19.2276L5.88884 18.0923H6.04516L5.78021 19.7934L5.26607 18.7719C5.25284 18.7434 5.23961 18.715 5.22629 18.6864C5.21306 18.6539 5.20244 18.6253 5.19452 18.5887L5.01696 19.728H4.86064V19.7321V19.7323Z" fill="black"/>
<path fill-rule="evenodd" clip-rule="evenodd" d="M21.0596 16.6635H19.896L21.5129 7.70068H22.6765L21.0596 16.6635ZM11.3902 16.102C11.3266 16.4559 11.1145 16.7041 10.876 16.7041H4.87769C4.71333 16.7041 4.59145 16.6186 4.51188 16.4478C4.4324 16.2768 4.41386 16.0652 4.46157 15.8131L5.9247 7.72514H7.08838L5.78159 14.9506H10.4361L11.7428 7.72514H12.9065L11.3903 16.102H11.3902ZM20.4553 7.98142C20.3758 7.81052 20.2511 7.72514 20.0816 7.72514H13.6883L13.3729 9.48266H19.1884L18.8491 11.3583H14.1973V11.3542H13.0337L12.0689 16.7042H13.2325L13.8792 13.1158H19.1089C19.2733 13.1158 19.427 13.0303 19.5701 12.8595C19.7132 12.6886 19.8087 12.4771 19.8537 12.2248L20.5005 8.63657C20.5508 8.36813 20.5349 8.15246 20.4554 7.98156L20.4553 7.98142Z" fill="#716D6A"/>
<path fill-rule="evenodd" clip-rule="evenodd" d="M24.6844 7.7168L26.1554 12.2083L23.0625 16.6999L23.4303 14.6625L25.1218 12.2083L24.3171 9.75119L24.6844 7.7168Z" fill="#0E8635"/>
<path fill-rule="evenodd" clip-rule="evenodd" d="M23.6501 7.7168L25.1209 12.2083L22.0254 16.6999L23.6501 7.7168Z" fill="#E97208"/>
<path d="M2.82285 0.000244141H27.177C27.9538 0.000244141 28.6596 0.487766 29.171 1.27294C29.6825 2.05826 30 3.14205 30 4.3346V23.166C30 24.3584 29.6824 25.4422 29.171 26.2275C28.6595 27.0127 27.9537 27.5003 27.1771 27.5003H2.82294C2.04633 27.5003 1.34037 27.0128 0.828901 26.2275C0.31752 25.4423 0 24.3587 0 23.166V4.3346C0 3.14191 0.31752 2.05812 0.828901 1.27294C1.34028 0.487766 2.04624 0.000244141 2.82303 0.000244141H2.82285ZM27.177 1.49418H2.82285C2.31462 1.49418 1.8522 1.81408 1.51668 2.32924C1.18116 2.8444 0.972811 3.5544 0.972811 4.33474V23.1661C0.972811 23.9463 1.18116 24.6563 1.51668 25.1715C1.85229 25.6868 2.31471 26.0067 2.82285 26.0067H27.177C27.685 26.0067 28.1474 25.6868 28.483 25.1715C28.8186 24.6562 29.027 23.9462 29.027 23.1662V4.33488C29.027 3.55482 28.8187 2.84468 28.4831 2.32938C28.1476 1.81422 27.6851 1.49432 27.177 1.49432V1.49418Z" fill="#808080"/>
</svg>
