<svg width="30" height="19" viewBox="0 0 30 19" fill="none" xmlns="http://www.w3.org/2000/svg">
<path d="M1.53846 0H28.4615C29.3112 0 30 0.671588 30 1.5V17.25C30 18.0785 29.3112 18.75 28.4615 18.75H1.53846C0.688808 18.75 0 18.0785 0 17.25V1.5C0 0.671588 0.688808 0 1.53846 0Z" fill="#150F7A"/>
<path d="M11.2785 13.0765L12.5616 5.73552H14.6139L13.3299 13.0765H11.2785ZM20.7443 5.89377C20.3377 5.74505 19.7006 5.58545 18.905 5.58545C16.8771 5.58545 15.4486 6.58107 15.4365 8.00806C15.425 9.06294 16.4563 9.65139 17.2347 10.0025C18.0336 10.3623 18.3021 10.5918 18.2983 10.9131C18.2932 11.4052 17.6604 11.63 17.0705 11.63C16.2491 11.63 15.8127 11.5187 15.1387 11.2446L14.8742 11.128L14.5862 12.7714C15.0656 12.9763 15.952 13.1538 16.8723 13.163C19.0296 13.163 20.43 12.1788 20.446 10.6549C20.4536 9.81984 19.9069 9.18432 18.7229 8.66037C18.0056 8.32081 17.5662 8.09416 17.5709 7.75032C17.5709 7.44519 17.9427 7.11886 18.7462 7.11886C19.4173 7.10874 19.9035 7.25142 20.2822 7.40011L20.4661 7.48486L20.7443 5.89377ZM26.0254 5.73541H24.4396C23.9483 5.73541 23.5807 5.86617 23.3649 6.34419L20.3171 13.0717H22.4721C22.4721 13.0717 22.8244 12.1671 22.9041 11.9685C23.1397 11.9685 25.2332 11.9717 25.5325 11.9717C25.5939 12.2286 25.7821 13.0717 25.7821 13.0717H27.6865L26.0254 5.73541ZM23.5094 10.4758C23.6791 10.0528 24.3271 8.42367 24.3271 8.42367C24.3149 8.44325 24.4955 7.99865 24.5991 7.72302L24.7378 8.35599C24.7378 8.35599 25.1308 10.1083 25.2129 10.4758H23.5094ZM9.53628 5.73541L7.52705 10.7417L7.31293 9.72429C6.9389 8.55155 5.77351 7.28097 4.4707 6.64486L6.30786 13.0649L8.47924 13.0625L11.7102 5.73534L9.53628 5.73541Z" fill="white"/>
<path d="M5.65577 5.73501H2.3465L2.32031 5.88775C4.89485 6.4954 6.59839 7.96386 7.3057 9.72812L6.58608 6.35463C6.46185 5.88981 6.10158 5.7511 5.65585 5.73486" fill="#F2AE14"/>
</svg>
